{
  "accessors": [
    {
      "bufferView": 2,
      "componentType": 5126,
      "count": 2292,
      "max": [
        30.06682014465332,
        118.23828887939453,
        18.92060089111328
      ],
      "min": [
        -8.2404203414917,
        0.0,
        -18.386959075927734
      ],
      "type": "VEC3"
    },
    {
      "bufferView": 2,
      "byteOffset": 27504,
      "componentType": 5126,
      "count": 2292,
      "max": [
        0.9996441006660461,
        0.9999851584434509,
        0.9999868273735046
      ],
      "min": [
        -0.9998182654380798,
        -0.9670042991638184,
        -0.999973475933075
      ],
      "type": "VEC3"
    },
    {
      "bufferView": 3,
      "componentType": 5126,
      "count": 2292,
      "max": [
        0.9999839067459106,
        0.9991589784622192,
        0.9999871850013733,
        1.0
      ],
      "min": [
        -0.9999839067459106,
        -0.9998025298118591,
        -0.9999839663505554,
        1.0
      ],
      "type": "VEC4"
    },
    {
      "bufferView": 1,
      "componentType": 5126,
      "count": 2292,
      "max": [
        1.9965900182724,
        7.467800140380859
      ],
      "min": [
        0.0004900000058114529,
        0.0
      ],
      "type": "VEC2"
    },
    {
      "bufferView": 0,
      "componentType": 5125,
      "count": 8550,
      "type": "SCALAR"
    },
    {
      "bufferView": 2,
      "byteOffset": 55008,
      "componentType": 5126,
      "count": 1312,
      "max": [
        30.400779724121094,
        114.89427185058594,
        18.67439079284668
      ],
      "min": [
        -8.805480003356934,
        2.0400500297546387,
        -19.959239959716797
      ],
      "type": "VEC3"
    },
    {
      "bufferView": 2,
      "byteOffset": 70752,
      "componentType": 5126,
      "count": 1312,
      "max": [
        0.9973839521408081,
        0.9998182058334351,
        0.9886273145675659
      ],
      "min": [
        -0.9960892796516418,
        -0.9572190046310425,
        -0.9890563488006592
      ],
      "type": "VEC3"
    },
    {
      "bufferView": 3,
      "byteOffset": 36672,
      "componentType": 5126,
      "count": 1312,
      "max": [
        0.9966047406196594,
        0.9968768358230591,
        0.9993539452552795,
        1.0
      ],
      "min": [
        -0.9962639212608337,
        -0.9977739453315735,
        -0.9975545406341553,
        -1.0
      ],
      "type": "VEC4"
    },
    {
      "bufferView": 1,
      "byteOffset": 18336,
      "componentType": 5126,
      "count": 1312,
      "max": [
        1.000100016593933,
        -0.0
      ],
      "min": [
        9.999999747378752e-05,
        -1.0
      ],
      "type": "VEC2"
    },
    {
      "bufferView": 0,
      "byteOffset": 34200,
      "componentType": 5125,
      "count": 1968,
      "type": "SCALAR"
    }
  ],
  "asset": {
    "extras": {
      "author": "evolveduk (https://sketchfab.com/evolveduk)",
      "license": "CC-BY-4.0 (http://creativecommons.org/licenses/by/4.0/)",
      "source": "https://sketchfab.com/3d-models/cactus-saguaro-d98fcb4869c6413f943fb127d60edb6e",
      "title": "Cactus (saguaro)"
    },
    "generator": "Sketchfab-13.31.0",
    "version": "2.0"
  },
  "bufferViews": [
    {
      "buffer": 0,
      "byteLength": 42072,
      "name": "floatBufferViews",
      "target": 34963
    },
    {
      "buffer": 0,
      "byteLength": 28832,
      "byteOffset": 42072,
      "byteStride": 8,
      "name": "floatBufferViews",
      "target": 34962
    },
    {
      "buffer": 0,
      "byteLength": 86496,
      "byteOffset": 70904,
      "byteStride": 12,
      "name": "floatBufferViews",
      "target": 34962
    },
    {
      "buffer": 0,
      "byteLength": 57664,
      "byteOffset": 157400,
      "byteStride": 16,
      "name": "floatBufferViews",
      "target": 34962
    }
  ],
  "buffers": [
    {
      "byteLength": 215064,
      "uri": "scene.bin"
    }
  ],
  "images": [
    {
      "uri": "textures/Tree_0Mat_baseColor.png"
    },
    {
      "uri": "textures/Tree_0Mat_metallicRoughness.png"
    },
    {
      "uri": "textures/Tree_0Mat_normal.png"
    },
    {
      "uri": "textures/Tree_1Mat_baseColor.png"
    },
    {
      "uri": "textures/Tree_1Mat_metallicRoughness.png"
    },
    {
      "uri": "textures/Tree_1Mat_normal.png"
    }
  ],
  "materials": [
    {
      "name": "Tree_0Mat",
      "normalTexture": {
        "index": 2
      },
      "pbrMetallicRoughness": {
        "baseColorTexture": {
          "index": 0
        },
        "metallicFactor": 0.0,
        "metallicRoughnessTexture": {
          "index": 1
        }
      }
    },
    {
      "alphaCutoff": 0.3302083015,
      "alphaMode": "MASK",
      "doubleSided": true,
      "name": "Tree_1Mat",
      "normalTexture": {
        "index": 5
      },
      "pbrMetallicRoughness": {
        "baseColorTexture": {
          "index": 3
        },
        "metallicFactor": 0.0,
        "metallicRoughnessTexture": {
          "index": 4
        }
      }
    }
  ],
  "meshes": [
    {
      "name": "Tree_0_Tree_0Mat_0",
      "primitives": [
        {
          "attributes": {
            "NORMAL": 1,
            "POSITION": 0,
            "TANGENT": 2,
            "TEXCOORD_0": 3
          },
          "indices": 4,
          "material": 0,
          "mode": 4
        }
      ]
    },
    {
      "name": "Tree_1_Tree_1Mat_0",
      "primitives": [
        {
          "attributes": {
            "NORMAL": 6,
            "POSITION": 5,
            "TANGENT": 7,
            "TEXCOORD_0": 8
          },
          "indices": 9,
          "material": 1,
          "mode": 4
        }
      ]
    }
  ],
  "nodes": [
    {
      "children": [
        1
      ],
      "matrix": [
        1.0,
        0.0,
        0.0,
        0.0,
        0.0,
        2.220446049250313e-16,
        -1.0,
        0.0,
        0.0,
        1.0,
        2.220446049250313e-16,
        0.0,
        0.0,
        0.0,
        0.0,
        1.0
      ],
      "name": "Sketchfab_model"
    },
    {
      "children": [
        2
      ],
      "matrix": [
        0.009999999776482582,
        0.0,
        0.0,
        0.0,
        0.0,
        0.0,
        0.009999999776482582,
        0.0,
        0.0,
        -0.009999999776482582,
        0.0,
        0.0,
        0.0,
        0.0,
        0.0,
        1.0
      ],
      "name": "cactus.fbx"
    },
    {
      "children": [
        3
      ],
      "name": "RootNode"
    },
    {
      "children": [
        4,
        5
      ],
      "name": "Tree_0"
    },
    {
      "mesh": 0,
      "name": "Tree_0_Tree_0Mat_0"
    },
    {
      "children": [
        6
      ],
      "name": "Tree_1"
    },
    {
      "mesh": 1,
      "name": "Tree_1_Tree_1Mat_0"
    }
  ],
  "samplers": [
    {
      "magFilter": 9729,
      "minFilter": 9987,
      "wrapS": 10497,
      "wrapT": 10497
    }
  ],
  "scene": 0,
  "scenes": [
    {
      "name": "Sketchfab_Scene",
      "nodes": [
        0
      ]
    }
  ],
  "textures": [
    {
      "sampler": 0,
      "source": 0
    },
    {
      "sampler": 0,
      "source": 1
    },
    {
      "sampler": 0,
      "source": 2
    },
    {
      "sampler": 0,
      "source": 3
    },
    {
      "sampler": 0,
      "source": 4
    },
    {
      "sampler": 0,
      "source": 5
    }
  ]
}
